<svg xmlns="http://www.w3.org/2000/svg" width="1256.329" height="240.598" viewBox="0 0 1256.329 240.598">
  <g id="logo" transform="translate(3 3)">
    <g id="Logo-2" data-name="Logo" transform="translate(239.842 38.548)">
      <path id="パス_10" data-name="パス 10" d="M1.05,3.15C6.6,3.15,8.85,0,12.6-2.1c9.3-5.1,4.2-4.95,9.3-15.6a21.393,21.393,0,0,1,1.35-4.05C23.1-24,27-29.25,27.3-32.1c.3-3.9,11.55-30,13.35-33.75.9.15.9.15,1.2.45,2.55,1.8,3.9,17.4,4.5,20.4.15,1.05,1.65,1.05,2.1,2.7.6,2.7-.3,6.15,1.2,9.6a6.3,6.3,0,0,1,1.8,1.05c.75,4.65-.9,16.2,1.65,19.35.3.3,8.4,7.05,9.15,7.2C62.25-1.35,66-3,67.8-.6,75-3.75,92.1-27,98.1-43.35c3.45-9.75,17.55-50.7,25.8-55.2l.45-1.8c-2.25-.15-5.7.9-6.9.3-3.6.15-8.1,3.3-9.75,7.95-4.2,12.6-6.9,23.55-11.1,30.3-1.5,2.1-.75,3.6-1.5,5.25L80.25-25.8a2.967,2.967,0,0,0-.3,1.5,41.556,41.556,0,0,0-4.5,8.25c-2.55,3.3-4.65,7.2-5.85,8.25-3-.45-6.15-19.5-7.2-22.5-.75-1.8-3.6-10.2-4.5-11.85-3-5.4-1.5-15.75-4.2-24.15-.15-.6-1.65-.6-1.8-1.05-1.5-3.3,1.8-25.5-.9-27.45-3.9-1.95-9.45,3.6-12.9,5.25C36.45-80.4,20.85-39.45,15.3-30.6c-3.15,4.8-4.2,11.55-6.15,15C6.15-10.35,1.95-3.3.9,2.7.75,2.85.9,3,1.05,3.15ZM28.8-50.25c2.1-8.55,7.35-15.6,9.3-24.3a2.081,2.081,0,0,0,1.35,0,3.752,3.752,0,0,0,.6,1.95c-2.1,3-4.5,7.65-6,10.05-3,4.35-2.1,8.85-4.65,11.85l-.15.45ZM15.15-19.8c1.8-2.25,3-5.85,4.35-8.55.9,2.4-2.1,6.45-3.45,8.25l-.45.3Zm123.9-42a12.435,12.435,0,0,1,3.9-3.45c-.3-1.05-.6-1.05-1.2-1.5-.9-.15-2.25,1.05-3.15,1.35C138.3-63.6,138-62.55,139.05-61.8ZM115.8,3c2.7,1.2,4.95-.6,7.05-1.2,2.85-.6,3,.9,4.95,0h.6c.9-.3,5.4-1.65,4.95-3-1.35-.45-9.45-3.15-10.5-3.9-5.55-3.3-7.2-4.8-8.7-11.25-.45-1.65.9-10.2,2.85-12.45,1.95-2.55,11.4,1.95,15-.45,2.7-1.65,12.15-10.05,13.65-12.6,4.35-6.45-6.15-13.95-11.1-14.7.75-1.8,2.85-3.6,2.4-5.1l.15-.75c-1.2,0-.6.3-1.2,0-3,1.95-4.8,3.9-7.35,5.85s-3.6.9-6.45,1.95c-.3.75-3.9,4.5-4.2,5.1a4.33,4.33,0,0,1,3.45,1.2A5.464,5.464,0,0,1,120-45.6c-3.75,4.65-6.3,10.65-10.05,15.75-1.05,1.5-3.15,2.55-4.2,4.05,0,.6.45,3.6.45,3.75l-1.65,1.5c-.3.6-2.1,9.6-1.95,10.95.6,3.75,4.2,8.85,7.8,10.5,1.2.6,4.35,1.5,5.1,1.35Zm10.05-35.25a25.391,25.391,0,0,1-6.3-1.95c1.65-4.2,3.45-9.6,6.6-12.6.6-.3,1.95-.6,2.55-.9,3.15,2.1,7.95,3.15,8.55,6.75.45,1.35-3,5.85-3.45,7.2C130.8-31.65,129.3-31.65,125.85-32.25ZM133.2,33.6c3.3-.3,3.75-2.25,6.15-3.6-1.35-1.05-2.85-1.2-2.85-4.8C138,12.15,143.85,3.6,150-4.35c1.05-.6,2.1-1.35,3.3-2.1a4.264,4.264,0,0,0,.6-1.8c2.4-3.45,5.7-6,8.85-8.7l.15-.9,2.7-2.25-.3-.75c1.35-1.35,5.85-4.35,7.05-5.4,2.25,1.2,1.05,4.95,4.35,5.25.6.75.45,2.25,1.05,3.15.6,1.35,2.25,1.05,2.4,3h1.2l-.3,1.35a12.028,12.028,0,0,1,4.2,4.5l-.15.9c.6.6,1.5.3,2.55.75.45.45.45,1.5.9,1.8,1.05.9,1.5.6,2.1,1.8C197.4-4.2,196.05-6.3,200.7-9c.9-4.8,1.8-9.3,1.05-12.6l.45-4.05c0-3.15,3.75-12.3,3.9-15.6.15-4.35,4.2-7.95,5.25-11.55h1.2c.45-2.1.45-2.85.15-3.9-2.55,0-10.05,2.7-11.85,3.9-1.5.9-2.55,3-4.05,4.05-3.15,1.95-13.05,10.2-16.05,12.45-3-.9-5.1-6.3-6.75-8.7-.9-1.65-2.7-7.2-5.4-7.8a37.134,37.134,0,0,1-5.4,4.2c-1.5.9.15,1.5-1.5,2.55-1.05,5.1,2.4,5.4,3.9,8.4a35.975,35.975,0,0,0,4.05,7.05c-.3,2.85-9.6,7.95-11.7,9.9-.9,1.5.45,1.5-2.1,2.7l-.9,1.8c-1.5,1.8-4.05,3.15-5.7,4.8a10.138,10.138,0,0,1-1.8,3.6c-1.05,1.05-3.45,2.7-4.5,3.75-1.65,2.7-5.7,6.9-7.95,9.75a5.994,5.994,0,0,1-2.4,4.8l-.45,2.1c-1.2,1.8-2.85,3.9-4.05,5.85,0,.15-.6,3.45-1.95,4.8.3,1.2.9.9,1.2,1.35.15,1.35-1.05,3.45-1.65,4.35,1.35,1.05,2.25,3,4.2,3.6C131.1,32.85,132.6,32.7,133.2,33.6Zm63-46.2c-.45.3-8.7-15.3-9.6-15-.75-1.8-3.6-1.95-3.75-4.35-.3-.45-.15,0-.3-.9,2.1-1.5,11.4-9.15,13.65-10.65.9,0,9.9-6.6,10.5-5.85-.15,2.4-4.65,13.95-5.1,18C201.45-27.9,198.45-13.35,196.2-12.6ZM174.15-32.7c-1.95-.3-5.85-8.25-6.9-9.3a5.371,5.371,0,0,1,.9-1.65c.45,0,5.4,7.05,6,7.05a6.641,6.641,0,0,0,2.25,1.8C175.95-33.15,174.9-33.75,174.15-32.7ZM194.1-10.95c-.15.9-4.95-1.8-4.95-1.05-5.1-.45-10.05-13.2-13.35-16.35.6-1.05.75-.9,1.35-2.1h.9c.9,1.65,3,2.7,3.75,4.35l-.3,1.35,1.2.45c.6,1.05.3,2.55,1.05,3.45.6.75,1.95.75,2.7,1.35C187.8-18.3,191.7-11.55,194.1-10.95Zm30.45,20.7c5.4-8.1,4.8-15.45,9.15-24.45,8.1-16.8,11.7-32.85,17.25-40.05,3.3-.9,11.4-3.15,14.7-2.4,1.35,0,.75.9,2.25.9,3.75-.75,6.6-2.7,10.05-3.6a2.547,2.547,0,0,1,.9-.9c-.15-.75,4.5-4.35,4.5-4.95-6.75-.15-22.95,6.3-30,5.85l3.6-9.15c2.4-4.2.6-5.25,2.85-9,1.5-3.45,5.1-10.5,6.75-13.65.45-1.8.3-2.1-.15-3-5.7,1.05-9.3,3.15-12.45,4.8-2.55,6.75-2.4,7.95-5.55,14.1-.9,1.5-2.55,6-2.4,6.75l.15.75-3.9,9a77.308,77.308,0,0,0-8.1,1.8,102.117,102.117,0,0,1-13.2,3c-.3,1.35-1.35,1.8-1.2,2.7,6.9.3,2.4.75,8.1-.45,4.2-.9,6.9-.45,10.65-.75l.75,1.05c-2.1,5.4-1.2,6.6-3.6,10.95l-.3,3.45c-3.45,6.3-3.45,8.4-5.25,14.4-1.05,2.7-1.8,6.45-2.85,9.15l1.8,3c.15,2.1-2.55,4.65-2.55,6,0,1.05-.6,1.35-.3,1.95-1.5,3.9-.9,3.6-2.1,7.5-.45,1.8-1.2,4.05-.3,4.8ZM318.9,1.5c1.05-.15,4.2-1.2,4.8-1.2,4.8.15,10.8-.45,14.55-2.85,1.2-.15.6.3.9-.6A247.226,247.226,0,0,0,375-20.4c4.95-2.85,9-7.2,13.5-9.75.45-1.8.75-3.3.15-4.2a9.317,9.317,0,0,0-.45-1.5c-2.4-.15-2.55-3.45-4.5-2.25-5.1,6.75-12.6,12.15-15.75,14.7-6.6,5.4-13.5,7.8-20.85,10.8-3.45,1.5-7.35,4.65-11.1,6.15a34.129,34.129,0,0,1-3.9.3c-5.4,1.5-13.2,2.55-17.1,0-8.4-5.55,6.9-22.65,12.75-30l2.7-2.25A216.072,216.072,0,0,1,346.8-55.2a7.006,7.006,0,0,0,1.5-.75c14.4-14.85,27.9-29.7,46.95-38.85.15-1.5.9-2.4-.75-2.1-3.15.6-5.7,3.3-9.15,4.2l-.15,1.05H384c-2.55,2.25-7.05,2.85-9.15,5.55H373.8l-.3,1.05c-3.6,1.05-7.2,4.65-10.05,6.9-6.9,5.25-12,8.25-17.85,14.7h-1.35c-1.65,4.2-13.35,12-16.95,15.45-.75.75-.6,1.8-1.35,2.55-3.3,3.6-7.35,6-11.1,10.05-6.15,6.3-13.2,17.1-15.75,24-.9,2.25.3,4.95.75,6.45.3.9-.15,1.65.3,2.4C302.4,1.8,313.95,2.25,318.9,1.5Zm103.05.9c3.9-3.15,11.7-3.6,16.05-4.95,1.65-.45,3.45-2.55,3.9-3,.15,0,.3-.15.6-.3-4.95-.9-10.95,2.85-14.1-.45-2.1-3.45,10.35-28.35,8.85-34.05,0-1.95-.75-3.45-.6-5.4a1.736,1.736,0,0,1-1.05-.75c-11.55,1.95-19.2,8.55-28.65,12.75A60.755,60.755,0,0,1,401.1-30c.45-3.3,1.2-6.6,1.5-9.15,1.05-9.6,10.2-24,15-33.45l-.15-1.5c.45-.6,2.1-3.15,2.4-3.75.3-.45-.45-.6,0-1.5,8.4-13.35,2.85-7.65,10.5-20.25l2.1-5.7c4.5-7.05,2.7-7.5,6.6-13.2,1.65-2.4,1.5-5.1,4.05-7.05-.3-.9-.45-.6-.75-1.5-3.15.45-4.35,1.5-7.65,1.8-1.2,1.5-2.85,2.55-3.75,3.75-1.5,2.1-1.2,3.6-2.55,5.7-3.3,5.4-2.25,4.5-5.4,9l-1.35,4.2c-1.05,2.4-3.75,6-4.35,8.25a3.013,3.013,0,0,1-.6,2.55c-3.45,5.25-2.7,4.95-4.95,9-.45,1.05,0,4.95-1.2,6.75-1.5,2.55-3.9,6-5.55,9-1.05,1.95-.15,3.6-1.05,4.95h-.9l-4.35,6.75c-1.35,2.7-.75,4.65-1.35,6-.45,1.05-1.95,2.4-2.4,3.3-.6,1.35.3,2.7.15,3l-.9.45c-3.6,6.45-3.9,12.15-4.05,18.15-2.7,1.05-5.25,1.8-5.55,2.25a3.228,3.228,0,0,1,0,1.2c-.6.75-1.5.3-1.95.3a9.9,9.9,0,0,0-.15,2.1c1.5-.15,4.5-1.5,7.65-2.7l-.75,3c.15,1.5,4.05,10.35,3.45,12,0,1.8,1.05,1.5,1.35,2.7.45.9-.3,2.55,0,3.3,1.05,1.5,7.65,3,10.05,1.35,1.05-.45.75-.6,1.65-1.2-.3-1.5-1.65-1.8-2.25-3a23.955,23.955,0,0,1-2.7-11.25c-.9-2.7-.9-6.75-.3-10.95,1.65-.9,3.6-1.65,4.8-2.85,3.45-3,16.2-6.15,19.35-9.6h1.35c1.5,3.45-.15,8.4-.9,9.6-1.2,2.25-4.95,11.25-5.25,14.4-1.5,1.8-.75,3-1.05,5.7-.15,2.25-3.45,4.95-2.1,7.5.6,1.35,1.8,1.2,2.85,2.25A3.562,3.562,0,0,0,421.95,2.4Zm63-.3c.9-.3,1.95-.45,3-.75,1.5-4.05,0-16.2.75-22.2.6-6.75,1.05-7.2,1.95-12.75.6-1.65,3.75-10.8,3.75-10.95a9.707,9.707,0,0,1,.45-1.5l1.8-.75s2.4-1.95,2.55-1.95c.9-.15,1.95-2.1,1.35-2.1-.15,0-2.25.45-4.05.6a7.946,7.946,0,0,1,.9-1.5c.3-.9,1.8-3.15,1.5-3.6-.15-.45-3.15.15-3.3.3A15.994,15.994,0,0,1,492.75-54c-2.7.9-.45.45-4.05,1.05-.9.15-1.5,1.35-1.5,1.35a29.376,29.376,0,0,0-1.2,3.15c-3.75,1.8-7.95,2.7-10.2,4.35-2.4,1.65-8.1,6-10.2,7.8-3,2.4-4.5,4.5-7.8,6.6-1.5,1.05-2.4,2.85-3.75,3.75-2.7,2.1-7.95,10.05-10.5,12.3-1.35,1.2-4.05,4.2-3.9,5.25a4.65,4.65,0,0,0-2.55,4.65c.3,1.2,0,2.85,1.2,3.15,1.8,1.35,3-.45,5.85-1.5,5.7-1.8,28.95-13.05,33.6-17.1,1.65,3.75-1.2,12.6-.15,15.45.3.75.15,2.85,1.05,3.15h2.1C481.65.3,482.55,3.15,484.95,2.1Zm-34.2-12.6c1.5-4.05,4.2-12,7.65-14.25,1.5-1.05,2.55-3,4.05-4.2,3.75-2.85,5.7-5.55,10.65-8.55,1.35-.75,7.35-4.65,7.95-4.8l2.7-1.35c-1.95,4.05-4.2,13.05-5.1,18.75-1.5,3-4.5,5.1-6.9,6.6-1.95,1.2-3.9,1.95-5.85,3.15C456.9-9.75,451.05-6.15,450.75-10.5Zm61.2,20.25c5.4-8.1,4.8-15.45,9.15-24.45,8.1-16.8,11.7-32.85,17.25-40.05,3.3-.9,11.4-3.15,14.7-2.4,1.35,0,.75.9,2.25.9,3.75-.75,6.6-2.7,10.05-3.6a2.547,2.547,0,0,1,.9-.9c-.15-.75,4.5-4.35,4.5-4.95-6.75-.15-22.95,6.3-30,5.85l3.6-9.15c2.4-4.2.6-5.25,2.85-9,1.5-3.45,5.1-10.5,6.75-13.65.45-1.8.3-2.1-.15-3-5.7,1.05-9.3,3.15-12.45,4.8-2.55,6.75-2.4,7.95-5.55,14.1-.9,1.5-2.55,6-2.4,6.75l.15.75-3.9,9a77.311,77.311,0,0,0-8.1,1.8,102.117,102.117,0,0,1-13.2,3c-.3,1.35-1.35,1.8-1.2,2.7,6.9.3,2.4.75,8.1-.45,4.2-.9,6.9-.45,10.65-.75l.75,1.05c-2.1,5.4-1.2,6.6-3.6,10.95l-.3,3.45c-3.45,6.3-3.45,8.4-5.25,14.4-1.05,2.7-1.8,6.45-2.85,9.15l1.8,3c.15,2.1-2.55,4.65-2.55,6,0,1.05-.6,1.35-.3,1.95-1.5,3.9-.9,3.6-2.1,7.5-.45,1.8-1.2,4.05-.3,4.8Zm53.1,5.85c8.4,0,10.2-.3,15.15-4.2l.3-1.05c-1.05.3-.75.15-1.5.75a4.274,4.274,0,0,1-3-1.2c-.3-.3-.15,0-.15-.75C581.25,4.5,586.8,0,592.05-5.1c3.45-3.3,8.25-5.55,11.85-8.55,5.25-4.35,4.95-4.8,8.85-7.8,2.85-1.05,10.5-2.4,13.65-3,.75-.3,1.65-1.2,2.25-1.5.45.3,1.35,1.2,2.25.9,1.2-.45.9-1.5,1.8-2.25s4.35-1.95,4.95-2.25c1.2-.3,2.4,0,3.6-.3,3.6-.9,9-2.25,12.45-4.05.6,0,1.2.45,1.8.45a32.425,32.425,0,0,0,6.45-2.1c.15,0,4.65-.6,8.85-1.05a4.281,4.281,0,0,0,0,1.95c.45.9,1.65,2.1,1.65,3.3l-.15,3,1.5.45-.45,1.8,1.05.45c.9,1.2.45,3,1.05,4.5.15.3,1.35.45,1.5.75a24.316,24.316,0,0,1-.45,3c.3.75,1.5,1.65,1.5,2.55.3,1.65-.6,2.85-.15,4.5l1.5,1.95-.3,1.35,1.8,1.2C681.9-3.9,681.9-1.5,683.7-.3h1.05c2.1,1.8.6,5.85,3.75,6.9.3.3,1.05,0,1.8-.45h.75c1.35-3.75.6-15.45-1.8-17.25s-2.85-6.6-4.5-8.85c-.9-1.35-.6-3.75-1.2-5.4-1.2-3-2.7-10.35-3.6-13.35l-.6-1.05a17.683,17.683,0,0,0,3.75-1.5c1.65.45,1.35,1.35.75,3a2.961,2.961,0,0,1,1.35.15c.6-.75.6-1.05.15-1.95,0-.15.3-.45.3-.6,1.8-.15,2.7-.6,4.65-.75.6-1.2.9-.9,1.65-1.95a11.007,11.007,0,0,1-1.95-1.5,2.578,2.578,0,0,1-.15-1.2c-2.25-.45-.75-.75-1.5-1.2s-11.25,3.45-14.7,4.05c-1.35-.9-2.4-2.1-1.95-4.05l1.5-.9.75-.3.6,1.5.9.45,1.5-.45a11.765,11.765,0,0,0-.3-2.1,24.7,24.7,0,0,1-.3-3.15c-.15-3.6.3-7.35-1.2-11.25l-.9-.6c-.15-.45.9-.75.6-1.5-.15-.75-1.2-1.5-1.35-2.25-.45-2.85.75-4.95.3-7.5,0-1.2-.9-3-.9-4.2-.3-1.65.6-2.85.15-4.05l-1.35-1.2c-.45-.75.9-3,.9-4.05a21.815,21.815,0,0,0-1.35-3.75l.6-2.7c-.45-6.3-.3-13.5-1.8-18.9-4.65,0-6.75,2.4-10.35,4.05-3.6,5.55-1.2,8.85-.75,13.95.3,2.25-.45,3.45,0,5.55.15,1.2,1.2,2.85,1.5,4.05.15,1.65-.9,2.85-.15,4.2,0,.15,1.05.45.9.75l-.3,1.5h.75l-.6,3c.45,2.7,3.15,9.45,1.5,11.25-2.1,4.65-8.4,7.35-11.7,10.95-1.95,1.95-2.55,3.6-5.1,4.8l-.3,1.05c-4.05.9-6.45,5.25-9.6,7.2-.75.45-1.8.45-2.4,1.2-.45.45-.15,1.05-.75,1.5a13.983,13.983,0,0,0-2.1.3C626.7-36,618-28.65,613.5-26.4c-6.45,2.25-11.55,2.7-17.1,6.15-.45,1.65.6,2.4,2.55,2.7,0,0,5.85-1.5,6.3-1.95-.6,2.1-2.55,2.55-3.75,3.6-2.4,1.95-3.6,2.85-6.15,4.8-1.2.9-3.15,1.5-4.2,2.7-.6.45-.6,1.35-1.2,1.8-2.4,1.65-5.1,2.55-7.2,4.5-2.7,2.7-5.7,6.3-9.3,7.95l-.3,1.05c-3.45.75-5.55,4.65-7.95,6.75,0,.75-.15.75,0,1.2Zm102.9-85.5c-1.2-4.2-.45-8.85-1.5-13.2-.6-3-1.95-7.05-1.95-10.5a17.817,17.817,0,0,1,.45-5.4,3.761,3.761,0,0,1,1.05.6c1.05,1.95-.15,6.3.45,8.55l.9.9v2.55h.75c-.15.15-.3.3-.45.3a10.7,10.7,0,0,0,.3,5.4c.45.75,1.65,2.25,1.65,3.3.3,2.55-1.95,4.05.75,6-.6,1.5.9,1.05-.9,1.35C668.7-69.75,669.3-69.9,667.95-69.9Zm3-2.25c-.3-.45-.15-.3-.15-1.05h.3Zm.15,1.05.15-.6h.3l-.15.6Zm1.65,20.7c-3.3-.75-2.25-9.15-3.75-11.7.9-2.55.3-1.5,1.65-3.15.6.75.45,1.95.9,2.7l.6,4.8,1.5.45c-.75.9.15.3-1.35.75l.45,3c.3.3,0,2.1,1.95,2.4l-1.05.75C672.3-49.95,673.35-50.4,672.75-50.4Zm1.5-9.3c0-.3-.15-.6-.15-1.05h.75l-.15,1.05ZM625.2-29.1c1.8-3,18.3-13.8,21.3-15.75,1.05-.75,2.1-2.25,3.15-3,5.1-3.6,10.35-7.05,14.7-11.55,1.05.3.75.6,1.8,1.05-.45,2.25-.75,4.2.3,6l-.15.45c.75.15.6-.3.9-.45a13.927,13.927,0,0,0,.75,1.5c-.9,1.2-.45.6-.75,2.25-.15.9.6,3.9.45,4.65.9.15.75,1.2,1.05,2.1-7.5,2.4-18.9,6.45-24.3,7.5-3.6,1.2-7.05,1.05-10.65,2.4C633.75-31.95,625.35-29.1,625.2-29.1Zm59.4-6c1.05-.6.3.15,1.05-.9a4.315,4.315,0,0,0,.9-.6c-.75-.45-.45-.45-1.35-.75-.15.75-.45.75-.45,1.35ZM680.25,72c.45-1.8,6.45-7.05,6.9-8.85,3.15-6.75,2.7-6.9,6.9-15.9,3.75-7.95,12.3-32.55,17.4-43.65.45-1.35,4.2-13.05,4.35-14.25,1.95-4.05,6.45-12.45,7.65-16.65.6-2.25,2.1-6.9,3.6-9,1.95-1.35,4.65-1.8,6.75-3.15,7.2-.9,9.15,3,13.05,4.65l1.65,4.2c0,.45.6-.9.15,3.15S741.15-5.7,733.65-3C726-.3,722.25.45,721.2-1.05c-.9-1.5-.15-6,.45-7.5s5.4-6.9,9.6-9.75,11.4-4.8,11.4-4.95a4.627,4.627,0,0,0,.15-1.35s-7.2,0-10.95.9-9.6,6.15-10.05,7.5l-2.7,9c0,.15-1.2,7.5-.6,8.4a10.056,10.056,0,0,0,4.8,3.3c2.1.45,15.6-3.3,18-5.25s2.85-3.9,3.45-4.95c.45-1.05,2.55-2.85,3.3-4.2s5.85-6.75,5.85-6.75,4.05-8.4,5.7-11.25,1.2-3.3,1.95-5.85a24.359,24.359,0,0,1-1.65-4.2c-5.4-4.5-17.4-7.65-28.95-4.35-1.2-.15-1.05-.15-1.5-.45-.3-.9.45-2.85,1.05-5.4-.3-1.05.6,0,1.65-1.05A28.742,28.742,0,0,1,733.5-54c1.95-4.05,2.1-7.8,3.75-11.4.15-.15,0-.3,0-.45-6,0-4.65,3.75-7.5,3.15-6.45,6.9-5.4,9.15-9,16.8-2.4,4.95-1.05,9-4.35,12.75-1.35,1.65-8.7,5.4-10.5,5.85l-1.05,1.05c.3,1.5.3,2.7,3.75.9,1.8,0,4.8-1.5,5.25-1.05-1.2,5.1-6.3,13.95-7.95,19.95-.6.75-.9,4.2-2.1,6.3a58.938,58.938,0,0,0-2.7,6.45c-.6,2.1-5.85,18-6.9,20.25l-1.65,1.65c-.6,2.7-.45,4.95-2.7,9-.45,1.2-2.7,5.7-2.85,6.9a174.222,174.222,0,0,1-5.85,20.85c-.6.9-1.35,1.8-1.8,2.55l.6,1.2Zm60.6,0c.45-1.8,6.45-7.05,6.9-8.85,3.15-6.75,2.7-6.9,6.9-15.9,3.75-7.95,12.3-32.55,17.4-43.65.45-1.35,4.2-13.05,4.35-14.25,1.95-4.05,6.45-12.45,7.65-16.65.6-2.25,2.1-6.9,3.6-9,1.95-1.35,4.65-1.8,6.75-3.15,7.2-.9,9.15,3,13.05,4.65l1.65,4.2c0,.45.6-.9.15,3.15S801.75-5.7,794.25-3C786.6-.3,782.85.45,781.8-1.05c-.9-1.5-.15-6,.45-7.5s5.4-6.9,9.6-9.75,11.4-4.8,11.4-4.95a4.627,4.627,0,0,0,.15-1.35s-7.2,0-10.95.9-9.6,6.15-10.05,7.5l-2.7,9c0,.15-1.2,7.5-.6,8.4a10.056,10.056,0,0,0,4.8,3.3c2.1.45,15.6-3.3,18-5.25s2.85-3.9,3.45-4.95c.45-1.05,2.55-2.85,3.3-4.2s5.85-6.75,5.85-6.75,4.05-8.4,5.7-11.25,1.2-3.3,1.95-5.85a24.359,24.359,0,0,1-1.65-4.2c-5.4-4.5-17.4-7.65-28.95-4.35-1.2-.15-1.05-.15-1.5-.45-.3-.9.45-2.85,1.05-5.4-.3-1.05.6,0,1.65-1.05A28.742,28.742,0,0,1,794.1-54c1.95-4.05,2.1-7.8,3.75-11.4.15-.15,0-.3,0-.45-6,0-4.65,3.75-7.5,3.15-6.45,6.9-5.4,9.15-9,16.8-2.4,4.95-1.05,9-4.35,12.75-1.35,1.65-8.7,5.4-10.5,5.85l-1.05,1.05c.3,1.5.3,2.7,3.75.9,1.8,0,4.8-1.5,5.25-1.05-1.2,5.1-6.3,13.95-7.95,19.95-.6.75-.9,4.2-2.1,6.3a58.938,58.938,0,0,0-2.7,6.45c-.6,2.1-5.85,18-6.9,20.25l-1.65,1.65c-.6,2.7-.45,4.95-2.7,9-.45,1.2-2.7,5.7-2.85,6.9a174.222,174.222,0,0,1-5.85,20.85c-.6.9-1.35,1.8-1.8,2.55l.6,1.2ZM864.04.64c8.56-2.72,10-10,16.48-16.32,2.88-2.72,8.8-10,9.6-14.48.08-.64-.88-2.16-1.28-2.88-2.16.64-2.4,2.72-3.68,3.92L883.48-28c-.56.8-1.12,2.48-1.68,3.12-.8.72-2.48,2.48-3.12,3.2-.8.88-.96,3.52-1.28,4.4-1.2,2.96-5.6,9.36-6.08,10.56-1.2,1.44-2.96,4.24-3.28,4-.56-.4.08-1.36-.08-1.36,0-2.72,1.52-16.56,1.52-19.28-.32-1.04-1.2-1.68-1.44-2.32-1.84-.16-3.2-.96-5.44,0-.16.96.16,1.52,0,2-.4,2.24,1.84,15.36,1.04,17.84C863.56-3.84,863.48-.96,864.04.64ZM863-26.48a7.437,7.437,0,0,1,.8-.4h1.36l.08-.56-.48-.64-.72-.32s-.88,0-.88.08l-.32,1.2Zm45.52-6.48a6.632,6.632,0,0,1,2.08-1.84c-.16-.56-.32-.56-.64-.8-.48-.08-1.2.56-1.68.72C908.12-33.92,907.96-33.36,908.52-32.96ZM896.12,1.6c1.44.64,2.64-.32,3.76-.64,1.52-.32,1.6.48,2.64,0h.32c.48-.16,2.88-.88,2.64-1.6a57.862,57.862,0,0,1-5.6-2.08c-2.96-1.76-3.84-2.56-4.64-6-.24-.88.48-5.44,1.52-6.64,1.04-1.36,6.08,1.04,8-.24,1.44-.88,6.48-5.36,7.28-6.72,2.32-3.44-3.28-7.44-5.92-7.84.4-.96,1.52-1.92,1.28-2.72l.08-.4c-.64,0-.32.16-.64,0-1.6,1.04-2.56,2.08-3.92,3.12s-1.92.48-3.44,1.04c-.16.4-2.08,2.4-2.24,2.72a2.309,2.309,0,0,1,1.84.64,2.914,2.914,0,0,1-.72,1.44c-2,2.48-3.36,5.68-5.36,8.4-.56.8-1.68,1.36-2.24,2.16,0,.32.24,1.92.24,2l-.88.8a38.262,38.262,0,0,0-1.04,5.84,8.675,8.675,0,0,0,4.16,5.6,8.111,8.111,0,0,0,2.72.72Zm5.36-18.8a13.542,13.542,0,0,1-3.36-1.04c.88-2.24,1.84-5.12,3.52-6.72.32-.16,1.04-.32,1.36-.48,1.68,1.12,4.24,1.68,4.56,3.6.24.72-1.6,3.12-1.84,3.84C904.12-16.88,903.32-16.88,901.48-17.2ZM910.92-.88c.16,3.84,2.96,0,4.48-.64h1.2c1.6-.96,5.04-10.24,6.4-11.92,2.4-2.96,1.84-2.96,4.08-5.44,1.68-2.8,4.32-6.08,4.96-6.16,1.6-1.2,3.44-1.92,3.84-1.68,1.68.08,1.36,1.76,1.6,2.96a4.7,4.7,0,0,0,2.88-1.04,4.165,4.165,0,0,0,2.48-3.44c-.08-.48-.08-.48-.24-.72-.32-1.76-1.92-1.44-3.76-1.84-.72-.16-3.76.48-6.08,2.48-5.04,3.44-6.24,8.72-9.6,11.68,0-.08,0-.72.24-.8a10.845,10.845,0,0,1,.96-3.12c.56-1.28,1.6-6.16,2.48-7.12.16-1.04,1.12-3.04.96-3.68-.88-.16-1.84.56-2.24.48-1.04.56-1.44,1.04-2.48,1.6-.88.72-1.04-.16-1.92.64C920.28-23.28,914.12-5.52,910.92-.88Zm27.12,2.16c1.36,1.28,4.88-.8,6.08-1.6.64-.4,1.36-.56,1.68-1.28.64-1.2.64-3.84,0-4.32a17.49,17.49,0,0,0-2-.32,18.3,18.3,0,0,1-1.84.8,15.829,15.829,0,0,0-3.76,3.92,1.82,1.82,0,0,0-.08,1.28C938.12.16,937.64.88,938.04,1.28Zm16.24,1.76c.4.48,1.52-.56,2.72-.56a24.321,24.321,0,0,0,2.48-2c2.48-4.64,3.04-6.96,4.56-10.56,2.4-5.6,3.84-9.04,6.48-13.28a5.166,5.166,0,0,1,.32-1.52c.72-.96,4.16-7.12,4.08-7.6.08-.64.08-.64-.24-1.04h-1.76c-.56.72-1.2.32-2.32.88-.56.32-10.16,4.64-10.4,5.04h-.16a1.911,1.911,0,0,0,.16.72,31.673,31.673,0,0,1,6.64-1.52H967a18.063,18.063,0,0,1-1.76,3.52,17.216,17.216,0,0,1-1.12,2.16A20.191,20.191,0,0,0,963-20.16c-1.36,3.44-4.08,8.72-4.72,12.08C957.08-4.08,955.24-.48,954.28,3.04ZM977.4,1.28c1.36,1.28,4.88-.8,6.08-1.6.64-.4,1.36-.56,1.68-1.28.64-1.2.64-3.84,0-4.32a17.49,17.49,0,0,0-2-.32,18.3,18.3,0,0,1-1.84.8,15.829,15.829,0,0,0-3.76,3.92,1.82,1.82,0,0,0-.08,1.28C977.48.16,977,.88,977.4,1.28Zm16.24,1.76c.4.48,1.52-.56,2.72-.56a24.321,24.321,0,0,0,2.48-2c2.48-4.64,3.04-6.96,4.56-10.56,2.4-5.6,3.84-9.04,6.48-13.28a5.166,5.166,0,0,1,.32-1.52c.72-.96,4.16-7.12,4.08-7.6.08-.64.08-.64-.24-1.04h-1.76c-.56.72-1.2.32-2.32.88-.56.32-10.16,4.64-10.4,5.04h-.16a1.911,1.911,0,0,0,.16.72,31.672,31.672,0,0,1,6.64-1.52h.16a18.063,18.063,0,0,1-1.76,3.52,17.216,17.216,0,0,1-1.12,2.16,20.182,20.182,0,0,0-1.12,2.56c-1.36,3.44-4.08,8.72-4.72,12.08C996.44-4.08,994.6-.48,993.64,3.04Z" transform="translate(-0.838 127.05)" fill="#fff"/>
    </g>
    <g id="chat-icon" transform="translate(8646 696.598)">
      <path id="パス_7" data-name="パス 7" d="M2.25,123.412c0,19.74,11.134,36.938,26.838,39.813,10.777,1.974,12.563,5.034,23.548,6.095V223l46.279-53.681c2.741-3.389,9.651.121,13.513,0a387.242,387.242,0,0,0,56.314-6.095c15.7-2.875,26.838-20.06,26.838-39.825V49.154c0-19.764-11.134-36.95-26.838-39.825a388.363,388.363,0,0,0-139.654,0C13.384,12.2,2.25,29.4,2.25,49.154V123.4Z" transform="translate(-8648.25 -699.598)" fill="#fff" stroke="#333" stroke-linecap="round" stroke-linejoin="round" stroke-width="6"/>
      <path id="パス_9" data-name="パス 9" d="M2.25,94.956c0,15.075,7.892,25.432,19.023,27.627,7.505,1.479,15.5,1.737,25.625,2.777,9.226-.491,10.554-.4,23.868,0l33.737,39.36V131.74c-.154-4.614.226-1.708,0-6.38,0-1.315,2.926-2.14,9.833-2.777,7.719-1.011,6-1.352,11.32-3.21,4.591-3.972,4.051-2.2,9.676-10.169,3.825-7.421,3.95-6.756,3.95-14.257v-56.7c0-15.094-7.892-28.218-19.023-30.413a255.82,255.82,0,0,0-98.986,0C10.142,10.029,2.25,23.163,2.25,38.247v56.7Z" transform="translate(-8565.276 -650.036)" stroke="#333" stroke-linecap="round" stroke-linejoin="round" stroke-width="6"/>
    </g>
  </g>
</svg>
